<mxfile host="app.diagrams.net" modified="2024-02-07T16:44:36.528Z" agent="Mozilla/5.0 (Windows NT 10.0; Win64; x64) AppleWebKit/537.36 (KHTML, like Gecko) Chrome/121.0.0.0 Safari/537.36" etag="Gxukkw0MoTvH66XoS9-L" version="23.1.1" type="github">
  <diagram name="Page-1" id="EPiPQoS1AGXn6H9ThLt4">
    <mxGraphModel dx="1050" dy="522" grid="1" gridSize="10" guides="1" tooltips="1" connect="1" arrows="1" fold="1" page="1" pageScale="1" pageWidth="827" pageHeight="1169" math="0" shadow="0">
      <root>
        <mxCell id="0" />
        <mxCell id="1" parent="0" />
        <mxCell id="yxhrlKH12UdMkDbol2Z9-1" value="" style="shape=image;html=1;verticalAlign=top;verticalLabelPosition=bottom;labelBackgroundColor=#ffffff;imageAspect=0;aspect=fixed;image=https://cdn4.iconfinder.com/data/icons/crime-and-security-24/64/44-128.png;shadow=0;" parent="1" vertex="1">
          <mxGeometry x="10" y="200" width="128" height="128" as="geometry" />
        </mxCell>
        <mxCell id="yxhrlKH12UdMkDbol2Z9-2" value="&lt;b&gt;&lt;font face=&quot;Comic Sans MS&quot;&gt;External Penetration Test&lt;/font&gt;&lt;/b&gt;" style="text;html=1;strokeColor=none;fillColor=none;align=center;verticalAlign=middle;whiteSpace=wrap;rounded=0;" parent="1" vertex="1">
          <mxGeometry x="44" y="328" width="60" height="30" as="geometry" />
        </mxCell>
        <mxCell id="yxhrlKH12UdMkDbol2Z9-3" value="" style="rounded=0;whiteSpace=wrap;html=1;fontStyle=4" parent="1" vertex="1">
          <mxGeometry x="250" y="10" width="690" height="530" as="geometry" />
        </mxCell>
        <mxCell id="yxhrlKH12UdMkDbol2Z9-4" value="" style="shape=image;html=1;verticalAlign=top;verticalLabelPosition=bottom;labelBackgroundColor=#ffffff;imageAspect=0;aspect=fixed;image=https://cdn4.iconfinder.com/data/icons/crime-and-security-24/64/44-128.png" parent="1" vertex="1">
          <mxGeometry x="610" y="12" width="128" height="128" as="geometry" />
        </mxCell>
        <mxCell id="yxhrlKH12UdMkDbol2Z9-5" value="&lt;b&gt;&lt;font face=&quot;Comic Sans MS&quot;&gt;Internal Penetration Test&lt;/font&gt;&lt;/b&gt;" style="text;html=1;strokeColor=none;fillColor=none;align=center;verticalAlign=middle;whiteSpace=wrap;rounded=0;" parent="1" vertex="1">
          <mxGeometry x="650" y="140" width="60" height="30" as="geometry" />
        </mxCell>
        <mxCell id="yxhrlKH12UdMkDbol2Z9-7" value="" style="outlineConnect=0;dashed=0;verticalLabelPosition=bottom;verticalAlign=top;align=center;html=1;shape=mxgraph.aws3.internet_3;fillColor=#007FFF;gradientColor=none;direction=east;" parent="1" vertex="1">
          <mxGeometry x="324" y="60" width="90" height="60" as="geometry" />
        </mxCell>
        <mxCell id="yxhrlKH12UdMkDbol2Z9-8" value="&lt;b&gt;&lt;font face=&quot;Comic Sans MS&quot; color=&quot;#007fff&quot;&gt;Internet&lt;/font&gt;&lt;/b&gt;" style="text;html=1;strokeColor=none;fillColor=none;align=center;verticalAlign=middle;whiteSpace=wrap;rounded=0;rotation=0;" parent="1" vertex="1">
          <mxGeometry x="342" y="39" width="55" height="30" as="geometry" />
        </mxCell>
        <mxCell id="yxhrlKH12UdMkDbol2Z9-9" value="" style="shape=image;html=1;verticalAlign=top;verticalLabelPosition=bottom;labelBackgroundColor=#ffffff;imageAspect=0;aspect=fixed;image=https://cdn1.iconfinder.com/data/icons/technology-and-hardware-2/200/vector_66_16-128.png" parent="1" vertex="1">
          <mxGeometry x="326" y="140" width="88" height="88" as="geometry" />
        </mxCell>
        <mxCell id="yxhrlKH12UdMkDbol2Z9-10" value="" style="fontColor=#0066CC;verticalAlign=top;verticalLabelPosition=bottom;labelPosition=center;align=center;html=1;outlineConnect=0;fillColor=#CCCCCC;strokeColor=#6881B3;gradientColor=none;gradientDirection=north;strokeWidth=2;shape=mxgraph.networks.firewall;" parent="1" vertex="1">
          <mxGeometry x="334" y="250" width="80" height="70" as="geometry" />
        </mxCell>
        <mxCell id="yxhrlKH12UdMkDbol2Z9-11" value="" style="points=[[0.35,0,0],[0.98,0.51,0],[1,0.71,0],[0.67,1,0],[0,0.795,0],[0,0.65,0]];verticalLabelPosition=bottom;sketch=0;html=1;verticalAlign=top;aspect=fixed;align=center;pointerEvents=1;shape=mxgraph.cisco19.user;fillColor=#005073;strokeColor=none;" parent="1" vertex="1">
          <mxGeometry x="334" y="345" width="85" height="85" as="geometry" />
        </mxCell>
        <mxCell id="yxhrlKH12UdMkDbol2Z9-13" value="" style="line;strokeWidth=5;direction=south;html=1;strokeColor=#007FFF;" parent="1" vertex="1">
          <mxGeometry x="360" y="120" width="10" height="20" as="geometry" />
        </mxCell>
        <mxCell id="yxhrlKH12UdMkDbol2Z9-15" value="&lt;font face=&quot;Comic Sans MS&quot; color=&quot;#808080&quot;&gt;&lt;b&gt;Router&lt;/b&gt;&lt;/font&gt;" style="text;html=1;strokeColor=none;fillColor=none;align=center;verticalAlign=middle;whiteSpace=wrap;rounded=0;" parent="1" vertex="1">
          <mxGeometry x="340" y="214" width="60" height="30" as="geometry" />
        </mxCell>
        <mxCell id="yxhrlKH12UdMkDbol2Z9-16" value="&lt;b&gt;&lt;font color=&quot;#004c99&quot; face=&quot;Comic Sans MS&quot;&gt;Firewall&lt;/font&gt;&lt;/b&gt;" style="text;html=1;strokeColor=none;fillColor=none;align=center;verticalAlign=middle;whiteSpace=wrap;rounded=0;" parent="1" vertex="1">
          <mxGeometry x="347" y="315" width="60" height="30" as="geometry" />
        </mxCell>
        <mxCell id="yxhrlKH12UdMkDbol2Z9-17" value="" style="shape=mxgraph.signs.tech.mail;html=1;pointerEvents=1;fillColor=#666666;strokeColor=none;verticalLabelPosition=bottom;verticalAlign=top;align=center;" parent="1" vertex="1">
          <mxGeometry x="347" y="440" width="26" height="20" as="geometry" />
        </mxCell>
        <mxCell id="yxhrlKH12UdMkDbol2Z9-19" value="" style="shape=mxgraph.signs.tech.mail;html=1;pointerEvents=1;fillColor=#4D4D4D;strokeColor=none;verticalLabelPosition=bottom;verticalAlign=top;align=center;" parent="1" vertex="1">
          <mxGeometry x="575" y="418" width="26" height="20" as="geometry" />
        </mxCell>
        <mxCell id="yxhrlKH12UdMkDbol2Z9-20" value="" style="shape=mxgraph.signs.tech.mail;html=1;pointerEvents=1;fillColor=#4D4D4D;strokeColor=none;verticalLabelPosition=bottom;verticalAlign=top;align=center;" parent="1" vertex="1">
          <mxGeometry x="160" y="345" width="26" height="20" as="geometry" />
        </mxCell>
        <mxCell id="yxhrlKH12UdMkDbol2Z9-21" value="" style="shape=image;html=1;verticalAlign=top;verticalLabelPosition=bottom;labelBackgroundColor=#ffffff;imageAspect=0;aspect=fixed;image=https://cdn1.iconfinder.com/data/icons/ionicons-fill-vol-2/512/warning-128.png" parent="1" vertex="1">
          <mxGeometry x="340" y="450" width="20" height="20" as="geometry" />
        </mxCell>
        <mxCell id="yxhrlKH12UdMkDbol2Z9-22" value="" style="shape=image;html=1;verticalAlign=top;verticalLabelPosition=bottom;labelBackgroundColor=#ffffff;imageAspect=0;aspect=fixed;image=https://cdn1.iconfinder.com/data/icons/ionicons-fill-vol-2/512/warning-128.png" parent="1" vertex="1">
          <mxGeometry x="153" y="354" width="20" height="20" as="geometry" />
        </mxCell>
        <mxCell id="yxhrlKH12UdMkDbol2Z9-23" value="" style="shape=image;html=1;verticalAlign=top;verticalLabelPosition=bottom;labelBackgroundColor=#ffffff;imageAspect=0;aspect=fixed;image=https://cdn1.iconfinder.com/data/icons/ionicons-fill-vol-2/512/warning-128.png" parent="1" vertex="1">
          <mxGeometry x="570" y="429" width="20" height="20" as="geometry" />
        </mxCell>
        <mxCell id="yxhrlKH12UdMkDbol2Z9-24" value="" style="image;aspect=fixed;perimeter=ellipsePerimeter;html=1;align=center;fontSize=12;verticalAlign=top;fontColor=#364149;shadow=0;dashed=0;image=img/lib/cumulus/switch.svg;" parent="1" vertex="1">
          <mxGeometry x="553" y="265" width="96" height="20" as="geometry" />
        </mxCell>
        <mxCell id="yxhrlKH12UdMkDbol2Z9-25" value="" style="verticalLabelPosition=bottom;html=1;verticalAlign=top;align=center;strokeColor=none;fillColor=#000000;shape=mxgraph.azure.server_rack;" parent="1" vertex="1">
          <mxGeometry x="784" y="244" width="56" height="86" as="geometry" />
        </mxCell>
        <mxCell id="yxhrlKH12UdMkDbol2Z9-27" value="" style="verticalLabelPosition=bottom;html=1;verticalAlign=top;align=center;strokeColor=none;fillColor=#000000;shape=mxgraph.azure.server_rack;" parent="1" vertex="1">
          <mxGeometry x="784" y="365" width="56" height="86" as="geometry" />
        </mxCell>
        <mxCell id="yxhrlKH12UdMkDbol2Z9-28" value="" style="edgeStyle=none;orthogonalLoop=1;jettySize=auto;html=1;rounded=0;entryX=0.058;entryY=0.377;entryDx=0;entryDy=0;entryPerimeter=0;strokeColor=#FF6666;" parent="1" target="yxhrlKH12UdMkDbol2Z9-3" edge="1">
          <mxGeometry width="100" relative="1" as="geometry">
            <mxPoint x="104" y="240" as="sourcePoint" />
            <mxPoint x="204" y="240" as="targetPoint" />
            <Array as="points" />
          </mxGeometry>
        </mxCell>
        <mxCell id="yxhrlKH12UdMkDbol2Z9-30" value="" style="edgeStyle=none;orthogonalLoop=1;jettySize=auto;html=1;rounded=0;entryX=0.725;entryY=0.755;entryDx=0;entryDy=0;entryPerimeter=0;strokeColor=#FF6666;" parent="1" target="yxhrlKH12UdMkDbol2Z9-3" edge="1">
          <mxGeometry width="100" relative="1" as="geometry">
            <mxPoint x="430" y="407.5" as="sourcePoint" />
            <mxPoint x="530" y="407.5" as="targetPoint" />
            <Array as="points" />
          </mxGeometry>
        </mxCell>
        <mxCell id="yxhrlKH12UdMkDbol2Z9-32" value="" style="edgeStyle=none;orthogonalLoop=1;jettySize=auto;html=1;rounded=0;entryX=0.261;entryY=0.358;entryDx=0;entryDy=0;entryPerimeter=0;strokeColor=#FF6666;" parent="1" target="yxhrlKH12UdMkDbol2Z9-3" edge="1">
          <mxGeometry width="100" relative="1" as="geometry">
            <mxPoint x="610" y="87.48" as="sourcePoint" />
            <mxPoint x="559.81" y="213.99999999999997" as="targetPoint" />
            <Array as="points" />
          </mxGeometry>
        </mxCell>
        <mxCell id="yxhrlKH12UdMkDbol2Z9-33" value="" style="edgeStyle=none;orthogonalLoop=1;jettySize=auto;html=1;rounded=0;entryX=0.058;entryY=0.66;entryDx=0;entryDy=0;entryPerimeter=0;strokeColor=#FF3333;" parent="1" target="yxhrlKH12UdMkDbol2Z9-3" edge="1">
          <mxGeometry width="100" relative="1" as="geometry">
            <mxPoint x="110" y="320" as="sourcePoint" />
            <mxPoint x="210" y="320" as="targetPoint" />
            <Array as="points" />
          </mxGeometry>
        </mxCell>
        <mxCell id="yxhrlKH12UdMkDbol2Z9-34" value="" style="edgeStyle=none;orthogonalLoop=1;jettySize=auto;html=1;rounded=0;entryX=0.072;entryY=0.517;entryDx=0;entryDy=0;entryPerimeter=0;strokeColor=#FF6666;" parent="1" target="yxhrlKH12UdMkDbol2Z9-3" edge="1">
          <mxGeometry width="100" relative="1" as="geometry">
            <mxPoint x="110" y="284" as="sourcePoint" />
            <mxPoint x="210" y="284" as="targetPoint" />
            <Array as="points" />
          </mxGeometry>
        </mxCell>
        <mxCell id="yxhrlKH12UdMkDbol2Z9-36" value="" style="edgeStyle=none;orthogonalLoop=1;jettySize=auto;html=1;rounded=0;entryX=0.261;entryY=0.509;entryDx=0;entryDy=0;entryPerimeter=0;strokeColor=#FF6666;" parent="1" target="yxhrlKH12UdMkDbol2Z9-3" edge="1">
          <mxGeometry width="100" relative="1" as="geometry">
            <mxPoint x="625.19" y="117.48" as="sourcePoint" />
            <mxPoint x="575" y="243.99999999999997" as="targetPoint" />
            <Array as="points" />
          </mxGeometry>
        </mxCell>
        <mxCell id="yxhrlKH12UdMkDbol2Z9-37" value="" style="edgeStyle=none;orthogonalLoop=1;jettySize=auto;html=1;rounded=0;entryX=0.449;entryY=0.434;entryDx=0;entryDy=0;entryPerimeter=0;strokeColor=#FF6666;" parent="1" edge="1">
          <mxGeometry width="100" relative="1" as="geometry">
            <mxPoint x="651.19" y="129.74" as="sourcePoint" />
            <mxPoint x="601" y="256.26" as="targetPoint" />
            <Array as="points" />
          </mxGeometry>
        </mxCell>
        <mxCell id="yxhrlKH12UdMkDbol2Z9-38" value="" style="line;strokeWidth=2;html=1;strokeColor=#6666FF;" parent="1" vertex="1">
          <mxGeometry x="447" y="270" width="100" height="10" as="geometry" />
        </mxCell>
        <mxCell id="yxhrlKH12UdMkDbol2Z9-39" value="" style="line;strokeWidth=2;html=1;strokeColor=#9999FF;" parent="1" vertex="1">
          <mxGeometry x="661" y="270" width="100" height="10" as="geometry" />
        </mxCell>
        <mxCell id="yxhrlKH12UdMkDbol2Z9-42" value="" style="endArrow=none;html=1;rounded=0;strokeWidth=2;entryX=0.754;entryY=0.717;entryDx=0;entryDy=0;entryPerimeter=0;strokeColor=#6666FF;" parent="1" edge="1">
          <mxGeometry relative="1" as="geometry">
            <mxPoint x="597" y="302" as="sourcePoint" />
            <mxPoint x="766.2600000000002" y="372.01" as="targetPoint" />
          </mxGeometry>
        </mxCell>
        <mxCell id="4EIPMfAQ_xIRTAm7a4Ow-1" value="&lt;font face=&quot;Comic Sans MS&quot; color=&quot;#3333ff&quot;&gt;&lt;b&gt;Web Server&lt;/b&gt;&lt;/font&gt;" style="text;html=1;strokeColor=none;fillColor=none;align=center;verticalAlign=middle;whiteSpace=wrap;rounded=0;" vertex="1" parent="1">
          <mxGeometry x="774" y="325" width="78" height="30" as="geometry" />
        </mxCell>
        <mxCell id="4EIPMfAQ_xIRTAm7a4Ow-4" value="&lt;b&gt;&lt;font color=&quot;#3333ff&quot; face=&quot;Comic Sans MS&quot;&gt;Email Server&lt;/font&gt;&lt;/b&gt;" style="text;html=1;strokeColor=none;fillColor=none;align=center;verticalAlign=middle;whiteSpace=wrap;rounded=0;" vertex="1" parent="1">
          <mxGeometry x="770" y="446" width="86" height="30" as="geometry" />
        </mxCell>
        <mxCell id="4EIPMfAQ_xIRTAm7a4Ow-5" value="&lt;b&gt;&lt;font color=&quot;#3333ff&quot; face=&quot;Comic Sans MS&quot;&gt;External&lt;br&gt;vs&lt;br&gt;Internal&lt;br&gt;Penetration Test&lt;/font&gt;&lt;/b&gt;" style="text;html=1;strokeColor=none;fillColor=none;align=center;verticalAlign=middle;whiteSpace=wrap;rounded=0;" vertex="1" parent="1">
          <mxGeometry x="796" y="50" width="104" height="30" as="geometry" />
        </mxCell>
      </root>
    </mxGraphModel>
  </diagram>
</mxfile>
